PathFileType	4	(X/Y/Z)	/Users/itak/Documents/Research/Walk-IL/dataset/trc/00167_00008.trc
DataRate	CameraRate	NumFrames	NumMarkers	Units	OrigDataRate	OrigDataStartFrame	OrigNumFrames
100.000000	100.000000	4	54	mm	100.000000	471	629
Frame#	Time	RPSI			LPSI			L3			STRN			T10			C7			CLAV			RBAK			LBAK			LSHO			LUPA			LAEL			LAOL			LWTS			LWPS			LFRA			LIFD			LHPS			LHTS			RSHO			RUPA			RAEL			RAOL			RWTS			RWPS			RFRA			RIFD			RHTS			RHPS			RBHD			LFHD			RFHD			LBHD			LHIP			RHIP			RASI			LASI			LKNE			LTHI			LANK			LTIP			LTOE			LMT1			LMT5			LHEE			RKNE			RTHI			RANK			RTIP			RTOE			RMT1			RMT5			RHEE			*53			
		X1	Y1	Z1	X2	Y2	Z2	X3	Y3	Z3	X4	Y4	Z4	X5	Y5	Z5	X6	Y6	Z6	X7	Y7	Z7	X8	Y8	Z8	X9	Y9	Z9	X10	Y10	Z10	X11	Y11	Z11	X12	Y12	Z12	X13	Y13	Z13	X14	Y14	Z14	X15	Y15	Z15	X16	Y16	Z16	X17	Y17	Z17	X18	Y18	Z18	X19	Y19	Z19	X20	Y20	Z20	X21	Y21	Z21	X22	Y22	Z22	X23	Y23	Z23	X24	Y24	Z24	X25	Y25	Z25	X26	Y26	Z26	X27	Y27	Z27	X28	Y28	Z28	X29	Y29	Z29	X30	Y30	Z30	X31	Y31	Z31	X32	Y32	Z32	X33	Y33	Z33	X34	Y34	Z34	X35	Y35	Z35	X36	Y36	Z36	X37	Y37	Z37	X38	Y38	Z38	X39	Y39	Z39	X40	Y40	Z40	X41	Y41	Z41	X42	Y42	Z42	X43	Y43	Z43	X44	Y44	Z44	X45	Y45	Z45	X46	Y46	Z46	X47	Y47	Z47	X48	Y48	Z48	X49	Y49	Z49	X50	Y50	Z50	X51	Y51	Z51	X52	Y52	Z52	X53	Y53	Z53	X54	Y54	Z54	

472	4.71	484.4411315917969	1028.239501953125	59.71928787231445	476.967529296875	1031.558227539062	-64.34743499755859	477.4450378417969	1065.637939453125	-1.940950870513916	717.7816162109375	1295.97265625	-9.401177406311035	427.7131042480469	1217.235229492188	-11.93435478210449	468.4205627441406	1492.742309570312	-21.5948314666748	678.7245483398438	1406.55810546875	-16.18812370300293	418.3108520507812	1309.17138671875	83.48008728027344	465.4623413085938	1468.423706054688	-121.6296768188477	543.108642578125	1463.925537109375	-200.563232421875	518.3703002929688	1328.33203125	-272.6612243652344	542.91357421875	1114.051513671875	-286.8643188476562	513.287109375	1095.028198242188	-205.7284088134766	662.48583984375	886.2564086914062	-283.118408203125	573.4022827148438	863.4332275390625	-305.708740234375	556.37744140625	1005.226928710938	-304.2727355957031	683.0852661132812	698.0684204101562	-269.8782348632812	596.0225830078125	793.9683227539062	-307.5855712890625	668.9500122070312	807.1754150390625	-306.4164428710938	530.2269287109375	1472.23193359375	160.2854156494141	511.2088317871094	1402.9755859375	226.1077728271484	496.4678649902344	1116.695678710938	271.22216796875	507.5011596679688	1109.719848632812	175.4346160888672	629.8284301757812	886.558349609375	277.1710510253906	550.5624389648438	874.6920166015625	314.7073364257812	517.9635620117188	1046.038818359375	294.1289978027344	636.8333740234375	695.805419921875	260.064208984375	649.0657958984375	790.364501953125	289.0004272460938	573.5591430664062	790.0903930664062	315.8648986816406	508.5346069335938	1652.397216796875	63.54789352416992	665.704345703125	1727.27294921875	-68.60472106933594	669.9629516601562	1717.991088867188	60.59267044067383	494.1575927734375	1669.060424804688	-72.81533813476562	567.6739501953125	976.335205078125	-189.3822174072266	648.240234375	999.7919311523438	173.2425994873047	720.1209106445312	1034.238647460938	110.6634292602539	696.7699584960938	1022.089233398438	-147.6864471435547	565.3875122070312	480.3130798339844	-193.0475616455078	580.9686889648438	626.2379760742188	-200.8991241455078	195.3707122802734	176.3322296142578	-119.24267578125	388.07861328125	320.6459350585938	-172.3587951660156	336.5970458984375	34.64039611816406	-126.7812194824219	317.0536804199219	57.71308517456055	-74.32566833496094	244.6763153076172	88.09081268310547	-169.0834197998047	184.8644866943359	219.1349334716797	-46.5433349609375	808.973876953125	523.5687255859375	120.9177627563477	757.8040161132812	787.902587890625	167.351806640625	802.918701171875	32.39422607421875	105.8960342407227	842.6412353515625	406.0082702636719	97.68438720703125	1015.819580078125	55.56863784790039	52.34543609619141	959.16259765625	48.44072341918945	11.82434558868408	915.2192993164062	34.19035339355469	125.7234191894531	746.058837890625	38.13466262817383	41.31398773193359	nan	nan	nan	
473	4.72	493.6080932617188	1029.996459960938	62.32034683227539	485.4985961914062	1032.834838867188	-61.74689483642578	486.307861328125	1067.207885742188	0.5747102499008179	726.4920043945312	1297.619873046875	-8.190552711486816	436.5406799316406	1218.714477539062	-9.73006534576416	477.0074157714844	1494.208129882812	-20.01036071777344	687.3610229492188	1408.157836914062	-14.96615982055664	427.1430969238281	1310.757690429688	85.47430419921875	473.9079284667969	1469.847290039062	-119.9881973266602	551.4288330078125	1465.45361328125	-199.1295166015625	526.6226196289062	1329.725219726562	-270.9190979003906	550.4309692382812	1115.300415039062	-283.7800598144531	521.24609375	1096.887573242188	-202.2835235595703	666.34033203125	885.5526733398438	-279.9238891601562	576.6746826171875	864.3605346679688	-301.7646484375	562.205810546875	1006.417907714844	-300.7320556640625	682.8701782226562	696.8032836914062	-265.0652160644531	597.7672729492188	794.4059448242188	-303.2083435058594	670.9597778320312	805.8866577148438	-302.5151977539062	539.2109985351562	1474.012084960938	161.7247161865234	520.4566650390625	1404.871826171875	227.7405853271484	506.6392517089844	1118.62841796875	273.9550170898438	517.38330078125	1111.446899414062	178.1861572265625	642.1800537109375	889.7373046875	280.0765686035156	563.12255859375	877.06201171875	317.7238464355469	528.779052734375	1048.076782226562	297.0106506347656	651.43994140625	699.1279296875	263.5543823242188	662.5286254882812	793.874267578125	292.2152404785156	587.08056640625	792.7664184570312	319.0983581542969	516.7570190429688	1653.815063476562	64.919921875	673.7509155273438	1729.073364257812	-66.9046630859375	678.01025390625	1719.568237304688	62.27251052856445	502.2986755371094	1670.61376953125	-71.24433135986328	575.6775512695312	977.0810546875	-187.0523681640625	657.90283203125	1001.349243164062	175.0787048339844	729.4503173828125	1035.68505859375	112.0701065063477	704.8078002929688	1023.618835449219	-146.1461639404297	582.0576782226562	480.4869689941406	-194.4951171875	594.301025390625	626.8579711914062	-201.1260986328125	207.0581512451172	184.5008850097656	-116.8468551635742	402.449462890625	323.9061279296875	-172.2973480224609	344.1168212890625	34.90945053100586	-127.9088439941406	325.894775390625	61.25701904296875	-75.02651977539062	252.8294830322266	95.02601623535156	-167.9100341796875	198.8840637207031	226.9044647216797	-43.78175354003906	814.5860595703125	523.5081787109375	121.2017974853516	766.2653198242188	788.5020751953125	168.2061157226562	803.1371459960938	32.68909454345703	105.5653076171875	846.8524780273438	405.5264892578125	97.70291900634766	1016.572998046875	53.66045761108398	51.8165397644043	959.5695190429688	47.39955902099609	11.32498264312744	915.5677490234375	34.36655807495117	125.5811157226562	746.2451171875	38.25750350952148	41.25085830688477	nan	nan	nan	
474	4.73	502.4381713867188	1031.684936523438	64.88157653808594	493.7013244628906	1034.105346679688	-59.16626739501953	494.8583374023438	1068.761962890625	3.085154056549072	734.9882202148438	1299.108642578125	-7.123181343078613	445.1074523925781	1220.232421875	-7.463949680328369	485.5072021484375	1495.687255859375	-18.43364524841309	695.846435546875	1409.62353515625	-13.86979484558105	435.79052734375	1312.419799804688	87.54100036621094	482.1845703125	1471.248657226562	-118.3520660400391	559.5357055664062	1466.876831054688	-197.7442016601562	534.65234375	1331.014526367188	-269.2026977539062	557.9076538085938	1116.47607421875	-280.9170532226562	529.0297241210938	1098.59521484375	-199.1419067382812	670.4132080078125	884.9552612304688	-276.7099304199219	580.3001098632812	865.3161010742188	-298.0938110351562	568.1778564453125	1007.565002441406	-297.4240417480469	682.9935302734375	695.728515625	-260.1292419433594	599.9324951171875	794.917236328125	-299.0404052734375	673.3508911132812	804.7677612304688	-298.5626525878906	548.226806640625	1475.775634765625	163.1300201416016	529.750732421875	1406.765380859375	229.3668975830078	516.754638671875	1120.554443359375	276.7506103515625	527.157470703125	1113.15771484375	180.9954681396484	654.6245727539062	893.0296020507812	283.0158081054688	575.781982421875	879.452880859375	320.7373657226562	539.576171875	1050.105712890625	299.9402770996094	666.4247436523438	702.6329956054688	267.107666015625	676.2060546875	797.5678100585938	295.4965209960938	600.804443359375	795.5067138671875	322.3379516601562	524.9151611328125	1655.169799804688	66.217041015625	681.718017578125	1730.813842773438	-65.33190155029297	685.9977416992188	1721.100708007812	63.82630920410156	510.3656311035156	1672.093627929688	-69.76700592041016	583.3656005859375	977.8785400390625	-184.8050384521484	667.2640380859375	1002.733459472656	176.8009948730469	738.4886474609375	1036.94482421875	113.349853515625	712.5004272460938	1025.127685546875	-144.7640991210938	598.7584838867188	480.7908935546875	-195.6678771972656	607.6387939453125	627.5921020507812	-201.2545318603516	219.4897613525391	192.0879974365234	-114.5204010009766	417.2272338867188	327.0582580566406	-172.0515441894531	353.2181701660156	35.75836181640625	-129.017333984375	336.0876770019531	65.01019287109375	-75.69952392578125	262.3715515136719	101.830207824707	-166.8101806640625	213.2175598144531	233.9251403808594	-41.07185745239258	819.7901000976562	523.3679809570312	121.4674301147461	774.2952270507812	788.9539184570312	168.92724609375	803.3493041992188	33.00540161132812	105.2503967285156	850.7229614257812	405.0203857421875	97.72205352783203	1017.382446289062	51.8129997253418	51.35834884643555	960.0038452148438	46.48361206054688	10.86679267883301	915.90380859375	34.50895690917969	125.4574279785156	746.4334716796875	38.38272094726562	41.15447998046875	nan	nan	nan	
475	4.74	510.9263916015625	1033.294311523438	67.34894561767578	501.6079406738281	1035.370971679688	-56.66164016723633	503.1052551269531	1070.293823242188	5.543437004089355	743.2681884765625	1300.44970703125	-6.188165187835693	453.4172058105469	1221.779541015625	-5.155999660491943	493.9093322753906	1497.173828125	-16.85948753356934	704.171630859375	1410.964477539062	-12.89418315887451	444.26123046875	1314.147827148438	89.67352294921875	490.2775268554688	1472.622924804688	-116.7151107788086	567.4113159179688	1468.188232421875	-196.4010467529297	542.4214477539062	1332.1875	-267.4989318847656	565.2954711914062	1117.567138671875	-278.2711181640625	536.6026611328125	1100.137817382812	-196.2920227050781	674.7369995117188	884.4752807617188	-273.4794921875	584.3145141601562	866.27490234375	-294.7251586914062	574.2763671875	1008.648986816406	-294.3577880859375	683.5517578125	694.8533935546875	-255.1272888183594	602.5894775390625	795.4841918945312	-295.1264953613281	676.1953125	803.8422241210938	-294.5794067382812	557.2628173828125	1477.521728515625	164.5045623779297	539.0857543945312	1408.654907226562	230.9906158447266	526.8322143554688	1122.47607421875	279.609130859375	536.8306274414062	1114.847412109375	183.8640441894531	667.1424560546875	896.419677734375	285.9630737304688	588.5264282226562	881.867919921875	323.7422485351562	550.3690185546875	1052.130737304688	302.9135131835938	681.7147827148438	706.3084716796875	270.6878662109375	690.05615234375	801.4258422851562	298.8074645996094	614.6976318359375	798.31103515625	325.5706176757812	533.0101318359375	1656.460693359375	67.45796966552734	689.6018676757812	1732.486572265625	-63.89828109741211	693.9317626953125	1722.589111328125	65.24365997314453	518.3516845703125	1673.49755859375	-68.37492370605469	590.8046264648438	978.7535400390625	-182.6868743896484	676.28076171875	1003.962890625	178.4118804931641	747.2113037109375	1038.050415039062	114.5347061157227	719.8983764648438	1026.614013671875	-143.5079803466797	615.3958129882812	481.2457275390625	-196.5617980957031	620.9717407226562	628.4525146484375	-201.2815551757812	232.6419677734375	198.8566131591797	-112.3374176025391	432.3379211425781	330.0402221679688	-171.6439666748047	364.0023498535156	37.20922088623047	-130.0247192382812	347.6978759765625	68.83160400390625	-76.28022766113281	273.3847351074219	108.2346954345703	-165.8119049072266	227.7909851074219	240.0184478759766	-38.49768829345703	824.627197265625	523.17138671875	121.7374954223633	781.9019775390625	789.2921142578125	169.5484313964844	803.5621337890625	33.33739852905273	104.9626312255859	854.2940063476562	404.50732421875	97.75283050537109	1018.235107421875	50.02578735351562	50.96230316162109	960.463134765625	45.67858505249023	10.44665145874023	916.2271728515625	34.59907531738281	125.3582458496094	746.6300659179688	38.51926040649414	41.03421401977539	nan	nan	nan	
